<svg width="2175" height="2176" viewBox="0 0 2175 2176" fill="none" xmlns="http://www.w3.org/2000/svg">
<g filter="url(#filter0_d_344_4)">
<path fill-rule="evenodd" clip-rule="evenodd" d="M1084.73 0.609985C1085.6 0.606985 1086.47 0.60498 1087.33 0.60498C1159 0.60498 1229.05 7.57897 1296.84 20.884C1510.27 62.775 1701.32 167.428 1849.95 314.801C1902.29 366.708 1949.38 423.915 1990.32 485.547C2059.94 590.325 2111.8 707.89 2141.63 833.939C2160.62 914.203 2170.67 997.906 2170.67 1083.94C2170.67 1681.85 1685.24 2167.27 1087.33 2167.27C964.022 2167.27 845.494 2146.62 735.022 2108.6C592.191 2059.44 462.827 1981.23 354 1881.05C138.873 1683.01 4 1399.1 4 1083.94C4 1025.26 8.67599 967.659 17.675 911.497C40.225 945.439 64.636 978.038 90.764 1009.15C249.606 1198.3 471.859 1332.44 724.654 1378.72C726.576 1379.07 728.501 1379.42 730.427 1379.76C783.888 1389.24 838.699 1394.8 894.55 1396.13C903.231 1396.33 911.937 1396.44 920.667 1396.44C942.109 1396.44 963.406 1395.81 984.542 1394.58C1063.96 1389.96 1141.1 1376.76 1215.04 1355.9C1257.96 1339.42 1298.78 1318.7 1336.98 1294.26C1581.58 1193.78 1754 953.109 1754 672.479C1754 670.976 1754 669.475 1753.99 667.975C1753.99 667.97 1754 667.964 1754 667.959V667.271C1754 480.092 1676.69 310.826 1552.29 189.689C1542.67 180.316 1532.76 171.232 1522.58 162.449C1487.98 132.583 1450.28 106.21 1410.03 83.882C1406.55 82.6 1403.04 81.387 1399.49 80.245C1305.67 29.821 1198.52 1.04301 1084.74 0.609009L1084.73 0.609985ZM504 1515.19C561.491 1515.19 608.167 1561.86 608.167 1619.35C608.167 1676.85 561.491 1723.52 504 1723.52C446.509 1723.52 399.833 1676.85 399.833 1619.35C399.833 1561.86 446.509 1515.19 504 1515.19Z" fill="url(#paint0_linear_344_4)"/>
<path fill-rule="evenodd" clip-rule="evenodd" d="M1753.99 667.976C1754 669.476 1754 670.978 1754 672.48C1754 953.109 1581.58 1193.79 1336.98 1294.26C1349.03 1286.55 1360.82 1278.47 1372.34 1270.03C1533.49 1151.95 1640.58 964.343 1649.26 751.551C1680.81 733.966 1709.78 712.299 1735.46 687.265C1741.84 681.04 1748.02 674.607 1753.99 667.976Z" fill="url(#paint1_linear_344_4)" stroke="white" stroke-width="1.35" stroke-miterlimit="1.5" stroke-linecap="round" stroke-linejoin="round"/>
<path fill-rule="evenodd" clip-rule="evenodd" d="M712.647 963.053C712.665 963.157 712.685 963.261 712.703 963.364C556.856 917.58 439.781 780.795 423.062 614.59C432.639 492.313 475.267 379.259 542.008 284.367C604.635 195.325 688.493 122.275 786.198 72.6C876.031 26.928 977.57 1.01598 1085.07 0.60498C1198.86 1.03898 1306.01 29.817 1399.83 80.241C1397.43 79.466 1395.01 78.724 1392.57 78.015C1201.04 -15.72 247.068 140.658 712.646 963.052L712.647 963.053Z" fill="url(#paint2_linear_344_4)" stroke="white" stroke-width="1.21" stroke-miterlimit="1.5" stroke-linecap="round" stroke-linejoin="round"/>
<path d="M1316.5 67.271C1342.78 67.271 1368.19 71.0231 1392.23 78.0201V78.018C1200.7 -15.718 246.728 140.661 712.306 963.055C705.478 924.51 701.916 884.844 701.916 844.352C701.916 709.392 741.488 583.602 809.651 477.961C800.531 511.751 795.666 547.28 795.666 583.936C795.666 671.62 823.506 752.853 870.821 819.271C905.828 868.412 951.496 909.443 1004.44 938.975C1062.91 971.594 1130.26 990.186 1201.92 990.186C1350.83 990.186 1481.13 909.894 1551.86 790.278C1519.88 798.38 1486.4 802.686 1451.92 802.686C1359.52 802.686 1274.29 771.777 1206.01 719.744C1174.41 695.665 1146.44 667.062 1123.07 634.905C1074.39 567.916 1045.67 485.505 1045.67 396.437C1045.67 385.625 1045 375.105 1045 364.605C1045 356.105 1045.67 346.945 1045.67 338.104C1045.67 305.841 1051.32 274.888 1061.69 246.182C1062.09 245.082 1062.49 243.985 1062.9 242.891C1069.34 225.759 1077.47 209.452 1087.09 194.17C1104.02 167.263 1125.54 143.538 1150.57 124.101C1168.62 110.079 1188.49 98.289 1209.76 89.147C1242.52 75.069 1278.61 67.271 1316.5 67.271Z" fill="url(#paint3_linear_344_4)"/>
<path d="M504.003 1723.52C561.533 1723.52 608.17 1676.88 608.17 1619.35C608.17 1561.83 561.533 1515.19 504.003 1515.19C446.473 1515.19 399.836 1561.83 399.836 1619.35C399.836 1676.88 446.473 1723.52 504.003 1723.52Z" fill="#181818"/>
</g>
<defs>
<filter id="filter0_d_344_4" x="0" y="0" width="2174.66" height="2175.27" filterUnits="userSpaceOnUse" color-interpolation-filters="sRGB">
<feFlood flood-opacity="0" result="BackgroundImageFix"/>
<feColorMatrix in="SourceAlpha" type="matrix" values="0 0 0 0 0 0 0 0 0 0 0 0 0 0 0 0 0 0 127 0" result="hardAlpha"/>
<feOffset dy="4"/>
<feGaussianBlur stdDeviation="2"/>
<feComposite in2="hardAlpha" operator="out"/>
<feColorMatrix type="matrix" values="0 0 0 0 0 0 0 0 0 0 0 0 0 0 0 0 0 0 0.25 0"/>
<feBlend mode="normal" in2="BackgroundImageFix" result="effect1_dropShadow_344_4"/>
<feBlend mode="normal" in="SourceGraphic" in2="effect1_dropShadow_344_4" result="shape"/>
</filter>
<linearGradient id="paint0_linear_344_4" x1="1504" y1="117.272" x2="37.3334" y2="1000.6" gradientUnits="userSpaceOnUse">
<stop stop-color="white"/>
<stop offset="1" stop-color="#D1DEE6"/>
</linearGradient>
<linearGradient id="paint1_linear_344_4" x1="1462.33" y1="1208.94" x2="1712.33" y2="750.605" gradientUnits="userSpaceOnUse">
<stop stop-color="white"/>
<stop offset="0.42" stop-color="#F1F5F7"/>
<stop offset="1" stop-color="#D1DEE6"/>
</linearGradient>
<linearGradient id="paint2_linear_344_4" x1="1296.01" y1="42.2667" x2="671.008" y2="917.267" gradientUnits="userSpaceOnUse">
<stop stop-color="white"/>
<stop offset="0.45" stop-color="#F2F5F8"/>
<stop offset="1" stop-color="#D1DEE6"/>
</linearGradient>
<linearGradient id="paint3_linear_344_4" x1="621.578" y1="923.856" x2="1316.5" y2="53.9176" gradientUnits="userSpaceOnUse">
<stop stop-color="white"/>
<stop offset="0.56" stop-color="#DFE8ED"/>
<stop offset="1" stop-color="#D1DEE6"/>
</linearGradient>
</defs>
</svg>
